<svg xmlns="http://www.w3.org/2000/svg" viewBox="0 0 76.37 11.79"><g id="Layer_2" data-name="Layer 2"><g id="Layer_1-2" data-name="Layer 1"><path d="M75.13,1.26c2.39,1,.58,2.9.58,2.9l-.44,2.42C73.21,7.3,71.36,8.76,69,8.36a145.49,145.49,0,0,1-25.86,2.33C35.25,10,27.34,10.3,20,10.11c-3.77.35-8.08.25-11.77,1.59-11.2,1.09-10.91-8.86.19-9.79,1.18.11,2.3-1.29,3.47-.38C13.48,2.58,15,.35,16.7,1.58c1.5,1,2.84-.16,4.3-.27,1.16-.38,2.09,1.17,3.2.43C32.11,0,40,3.14,47.94,1.21,56.4,2.68,67.09-2.18,75.13,1.26Z"/></g></g></svg>
