<svg xmlns="http://www.w3.org/2000/svg" viewBox="0 0 128.37 66.27"><g id="Layer_2" data-name="Layer 2"><g id="Layer_1-2" data-name="Layer 1"><path d="M73.5,10.62a1.7,1.7,0,0,0-1.62.29c-.69.61-1.41.38-2-.32s-.94-.91-1.65-.18c-.26.26-.91.2-1.37.17-2.26-.2-4.51.27-6.81-.48-1.49-.5-3.28-.1-4.94-.1S52,10,50.45,10a12.33,12.33,0,0,0-3,.35A6,6,0,0,0,43.24,10c-1.48.42-2.14-.74-4.4-.62C37.56,10,37.73,8.89,35,9.2c-.73.09-1.34.49-1.79-.18-.76-1.14-1.56-.57-2.38-.18-.63.29-1.21,1.1-1.9.06-.07-.1-.36,0-.54-.07-.92-.15-1.61,1.28-2.61.4S23.7,9,22.68,8.85s-1.95,0-2.92,0c-1.88,0-3-.82-2.86-2.62a6.63,6.63,0,0,1,1.56-4.62A4.83,4.83,0,0,1,22.24,0a32.61,32.61,0,0,1,9.31,1.62c.38.11.82.29,1.08.16.95-.5,1.84-1,2.75,0,.86-.3,1.83,0,2.64-.36a4.7,4.7,0,0,1,4.28.62,5.5,5.5,0,0,0,3.55-.16c1.28.09,2.45.48,2.84.45,2-.15,4,.64,5.93-.52,1.77,1.47,4.09-.25,6,1.06.66.46,1.91,0,2.88.1s2-.49,2.75.42a.61.61,0,0,0,.52.13c3.28-1.29,6.69-.37,10-.51,1.42-.06,2.66.94,3.86.28a4.37,4.37,0,0,1,3.43-.2,9,9,0,0,0,3.28.31c1.17-.82,3.07-.29,4-.48,2.72-.56,5.59.64,8.31-.44,1.82,1.28,4-.2,6,.92A3.5,3.5,0,0,0,109,3.21a2,2,0,0,1,2.15,0,2.62,2.62,0,0,0,2.4.15c1-.27,2.45,1,2.1,1.91a2.1,2.1,0,0,0,0,1.83c.31.72-.38,1.35-1.26,1.13s-1.5.82-2.51.1c-.55-.38-1.56-.25-2.36-.61-1-.46-1.51.62-2.09,1.21-.78.78-.81.3-.86-.4,0-.1-.42-.29-.44-.26-.85,1-2.33.08-3.1,1-.59.68-1.28.67-2,.86-.41.11-.66.58-1,0a2.08,2.08,0,0,0-2.62-.61c-1.59.72-4.53.27-6.12.36a5.77,5.77,0,0,0-3.64.33,3.39,3.39,0,0,0-3.11.1c-1.06.57-1.09.73-4.21.13-.81-.15-1.15-.56-2.34.07Z"/><path d="M2.07,34.21C1.11,34.92.36,35.67.5,37a.55.55,0,0,1-.17.41c-.79.53.08,1,.2,1,1.08.18,1.88,1.32,3,.93.93-.32,2.12.62,3.26.37,1.52-.39,2.33.74,3.59.37s2.46.2,3.16-.07c1.38-.53,2-.08,3.18-.55.39-.34,1.66-1.2,2-.75.83,1,1.64.34,2.33.11.87-.29,1.78-.35,2.64-.64.48,1.14,1.2.28,1.78.17A4.17,4.17,0,0,1,27.08,38a10.1,10.1,0,0,0,4,0c1-.25,2.12.11,3.26-.08s2.24-.41,3.35-.59a4.2,4.2,0,0,1,3,.18,4.92,4.92,0,0,0,1.92.25c.7.07,1.42.3,2-.26a1.1,1.1,0,0,0,1.54.17c.63-.47,1.33-.29,2-.28s1.42.53,2.06-.14c2.49,0,4.93-.85,7.46-.28.79.18,1.73.62,2.52-.16,1,.44,1.82-.34,2.76-.2a18.59,18.59,0,0,0,4.36.43c1.36-.16,2.74-.13,4.1-.38a4,4,0,0,1,3,.61,2.78,2.78,0,0,0,2.74.15c.33-.16.63-.26.83,0,.4.59,1,.39,1.53.51,2.68.65,5.43-.11,8.11.42.16,0,.35.09.47,0,1.42-.74,3,0,4.42-.45,2.92.68,5.91.11,8.84.51a5.75,5.75,0,0,0,3-.17c1.26-.52,2.5-.08,3.74-.1.74,0,1,.64,1.68.78s1.32-.59,2-.34c.37.13.83,0,1.06.42s.68-.55,1.07.15a1.28,1.28,0,0,0,1.54.27,2.14,2.14,0,0,1,2.07-.14c.79.23,1.33-.49,2.05-.3,2.29.6,4.39-.6,6.6-.74a1.06,1.06,0,0,0,1-.82,7.28,7.28,0,0,1,.79-2.67,1.21,1.21,0,0,0-.27-1.53c1.16-1,.31-1.33-.56-1.79a6,6,0,0,0-4-.66c-.41.11-.9.27-1.12.08-1.09-.94-2.44-.59-3.66-.88-1.44-.34-3.06.11-4.37-1a.93.93,0,0,0-.9,0,1.75,1.75,0,0,1-2.05,0c-.81-.53-1.34-.1-2,.05s-1.2.67-2,.58-1.29-.42-1.81.23c-.5-1-1.16-.22-1.77-.19-.44,0-1,.14-1.35-.32s-.77-.4-1.2,0a1.52,1.52,0,0,1-.79.48,6,6,0,0,1-1.69-.18c-.67-.18-1.11.47-1.81.34-1.6-.29-3.24-.34-4.85-.6s-3.12.39-4.72,0a4,4,0,0,0-2.55.07,2.67,2.67,0,0,1-2.69-.57c-.14-.13-.54-.21-.62-.13a2.06,2.06,0,0,1-3.14.09.75.75,0,0,0-.7-.08c-.82.74-1.74.34-2.54.15-2.22-.51-4.46.28-6.66-.22-.63.88-1.22-.57-2,0s-1.57.11-2.33,0-1.64.6-2.54.26c-.39-.15-.68-.8-1.33-.21-.32.29-1.08-.34-1.59.08a.94.94,0,0,1-.89.17c-2.28-.5-4.62.35-6.9-.28-.23-.06-.57-.17-.71-.07a2.72,2.72,0,0,1-2.53.16c-1-.26-1.87.42-2.77.2-2.29-.56-4.47.94-6.74.28a11.78,11.78,0,0,1-4.09.53,21.36,21.36,0,0,1-4.23,0,3,3,0,0,0-1.38.09,32.48,32.48,0,0,1-7.84,1.32c-1.27.88-2.71.05-4.11.4a12.9,12.9,0,0,1-4.07.22c-1.1-.36-2.05.36-3.12.62-.88.21-2.1-.1-2.64.49C5.48,34.23,3.71,33.5,2.07,34.21Z"/><path d="M105.65,55.55c2.39,1,.58,2.9.58,2.9l-.44,2.41c-2.06.72-3.91,2.18-6.29,1.78-1.59.93-3.35.65-5,.53-1-.08-1.73,1-2.68.62-.76-.27-1.31.93-2.2.07-.62-.59-1.33.47-2.06.52a13.39,13.39,0,0,0-2.62.06,22.83,22.83,0,0,1-7.08.52c-.91,0-1.88.35-2.74-.48-.55-.54-.9.58-1.46.5-2.06-.31-4.21.64-6.22-.54-.44-.26-1.15,0-1.74,0-2.24,0-4.48,0-6.73,0-.55,0-1.13.21-1.67-.21s-1.23-.39-2,0c-1.06.58-2.27,1.49-3.58.24-.21-.2-.76,0-1.12-.08-.92-.24-1.71.63-2.77.08-.88-.45-1.81.78-2.95.56s-2.45-.41-3.11.11c-.95.75-2,.2-2.94.85-1.16.78-4.53-.2-6.06-1.21-.16-.1-.3-.37-.43-.36-.95.08-1.88-.15-2-1.17-.1-1.27-.33-2.57.93-3.72A13.26,13.26,0,0,1,39,56.19a2.14,2.14,0,0,0,1.34-.32,1.87,1.87,0,0,1,2.13-.06,1.71,1.71,0,0,0,2,0,2.88,2.88,0,0,1,2.73,0,2.84,2.84,0,0,0,3,0c.47-.28.92-.14,1.35-.28,1.16-.37,2.09,1.17,3.2.43s2.43-.3,3.64-.39,2.34,0,3.51,0,2.35,0,3.51,0c.82-.06,1.5.59,2.48.09s1.8.81,3,.55a8.36,8.36,0,0,1,2.91,0c1.66.24,3.09-.74,4.74-.73,1,0,1.89.79,3.08.23A6.38,6.38,0,0,1,85,55.64c1.49.24,2.67-.88,4.16-.66a9.3,9.3,0,0,0,4.07,0c2.57-.87,5.13-.36,7.69-.5s2.59-.2,3.93.61Z"/></g></g></svg>
