<svg xmlns="http://www.w3.org/2000/svg" viewBox="0 0 99.02 10.78"><g id="Layer_2" data-name="Layer 2"><g id="Layer_1-2" data-name="Layer 1"><path d="M56.78,10.62c-7.66.58-17.19-1.6-26-.27-3.53-1.19-4.86.06-8.63-1-.58,0-4.28.13-5.66-.34-1.69-1.95-2.93,1.45-4.82-.19-5.14.5-15.82,1.42-9.9-7.24,4.74-3.77,12,.36,16.92.22C22,.38,25,2.72,29.13,1.91c3.46.3,5.66,1.28,8.77-.07,10.81,2.49,21.41.45,32.74,1.59,4.13-1.49,8.19.35,12.32-.92,4.51,1.37,9.3.64,13.84.84,2.53-.65,3,5.2.8,4.87-2.19,1.13-5.39-2.11-7,.7-.78.78-.81.3-.86-.4a7.34,7.34,0,0,0-3.54.72c-.83.63-2.26,1.36-3.07.86a2.08,2.08,0,0,0-2.62-.61c-3.71,1.29-5.6-.61-9.76.69-3.33-1.23-2.8,1.56-7.32.23-.81-.15-1.15-.56-2.34.07Z"/></g></g></svg>
