<svg xmlns="http://www.w3.org/2000/svg" viewBox="0 0 127.91 11.12"><g id="Layer_2" data-name="Layer 2"><g id="Layer_1-2" data-name="Layer 1"><path d="M1.88,5.31c-4.78,4.54.57,5.33,4.74,5.5,3.51.34,6.7.58,9.94-.25.38-.34,1.65-1.2,2-.75,1.56,1.3,3.24-.52,5-.53,3.84.49,9.43-.14,13.94-.78,2.14-.81,4.81,1.39,7,.17,1.06,1.06,2.28-.61,3.58-.11.68,0,1.42.53,2.06-.14,3.32-.82,6.87.23,10-.44,11-.73,21.24,2.36,32.29,1.16,6.5.84,13.25.08,19.31.68.37.13.83,0,1.06.42s.68-.55,1.07.15c1.63.75,3.9-.24,5.66-.17,4,.66,9.81-1,8.17-5.76,2.13-3.94-11.58-2.1-13.77-4.21-.91-.28-2.2.91-3,.07-1.82-.37-3.94.59-5.77.86-.79-1.36-2.15.68-3.12-.51-.68-1-1.29.35-2,.44a8.59,8.59,0,0,0-3.5.16C86.43.16,78,.7,68.06,0,58.58.28,48,0,37.76.57c-5.85.79-11.66.89-17.54,1.93-2.54.7-5.47.55-8.18.62C8.32,3.25,5.72,4.85,1.88,5.31Z"/></g></g></svg>
