<svg xmlns="http://www.w3.org/2000/svg" viewBox="0 0 87.21 87.21"><defs><style>.cls-1{fill:#fff;}</style></defs><g id="Layer_2" data-name="Layer 2"><g id="Layer_1-2" data-name="Layer 1"><path id="Path_13" data-name="Path 13" class="cls-1" d="M24.23,0A24.26,24.26,0,0,0,0,24.23V63A24.25,24.25,0,0,0,24.23,87.21H63A24.24,24.24,0,0,0,87.21,63V24.23A24.25,24.25,0,0,0,63,0Zm0,9.69H63A14.55,14.55,0,0,1,77.52,24.23V63A14.55,14.55,0,0,1,63,77.52H24.23A14.55,14.55,0,0,1,9.69,63V24.23A14.55,14.55,0,0,1,24.23,9.69Zm43.6,4.85a4.84,4.84,0,1,0,4.85,4.84A4.84,4.84,0,0,0,67.83,14.54ZM43.61,19.38A24.23,24.23,0,1,0,67.83,43.61h0A24.25,24.25,0,0,0,43.61,19.38Zm0,9.69A14.54,14.54,0,1,1,29.07,43.61h0A14.55,14.55,0,0,1,43.61,29.07Z"/></g></g></svg>
