<svg xmlns="http://www.w3.org/2000/svg" viewBox="0 0 87.21 96.9"><defs><style>.cls-1{fill:#fff;}</style></defs><g id="Layer_2" data-name="Layer 2"><g id="Layer_1-2" data-name="Layer 1"><path id="Path_12" data-name="Path 12" class="cls-1" d="M13,0l7.17,25.89V38.31h6.2V25.89L33.61,0H27.36L24.77,11.78q-1.1,5.16-1.41,7.34h-.19q-.47-3.06-1.41-7.39L19.24,0ZM40.85,9.77A9.18,9.18,0,0,0,35.76,11a7.28,7.28,0,0,0-2.85,4A23.39,23.39,0,0,0,32,22.28v4.07a26.19,26.19,0,0,0,.79,7.16,7,7,0,0,0,2.7,4,9.24,9.24,0,0,0,5.23,1.28,9.15,9.15,0,0,0,5.13-1.26,7,7,0,0,0,2.74-4,25,25,0,0,0,.84-7.19V22.29a24.83,24.83,0,0,0-.86-7.23,7.34,7.34,0,0,0-2.74-4,8.73,8.73,0,0,0-5-1.29Zm11.86.55v20.9A9.85,9.85,0,0,0,54,36.93a4.74,4.74,0,0,0,4.11,1.82,6.44,6.44,0,0,0,6-3.88h.13l.55,3.43h4.93v-28h-6.3V32.55a3.08,3.08,0,0,1-1.12,1.28,2.76,2.76,0,0,1-1.57.5,1.42,1.42,0,0,1-1.37-.79A6.31,6.31,0,0,1,59,30.86V10.32Zm-12,3.78a1.89,1.89,0,0,1,1.86,1.4,13.74,13.74,0,0,1,.52,4.42v8.71a13.86,13.86,0,0,1-.52,4.48,1.89,1.89,0,0,1-1.85,1.37,1.84,1.84,0,0,1-1.82-1.37,14.13,14.13,0,0,1-.51-4.48V19.91a13.77,13.77,0,0,1,.52-4.42,1.86,1.86,0,0,1,1.79-1.38Zm-31,29.51A9.72,9.72,0,0,0,0,53.3V87.21A9.72,9.72,0,0,0,9.69,96.9H77.52a9.7,9.7,0,0,0,9.69-9.69V53.3a9.7,9.7,0,0,0-9.69-9.69ZM43.84,53.3H49V65.74h0a5.59,5.59,0,0,1,2-2.18,5,5,0,0,1,2.75-.82,4.2,4.2,0,0,1,3,1A6.12,6.12,0,0,1,58.23,67a31.53,31.53,0,0,1,.47,6.21v3.74h0a17.84,17.84,0,0,1-1.28,7.75,4.18,4.18,0,0,1-4,2.49,5.57,5.57,0,0,1-2.73-.69,4.49,4.49,0,0,1-1.86-1.9h-.11l-.54,2.24H43.84ZM12.05,54.5H27.79v4.28H22.52v28H17.33v-28H12.05ZM68.3,62.76a7.47,7.47,0,0,1,4.21,1,5.42,5.42,0,0,1,2.06,3.12,23.11,23.11,0,0,1,.6,5.86v4.05h-8.9V78a32.2,32.2,0,0,0,.13,3.4A3.36,3.36,0,0,0,67,83.05a1.58,1.58,0,0,0,1.31.52,1.65,1.65,0,0,0,1.63-.93,8,8,0,0,0,.48-3.07l4.59.26a8.06,8.06,0,0,1,0,.85,6.3,6.3,0,0,1-1.8,4.89,7.26,7.26,0,0,1-5.07,1.62,6,6,0,0,1-5.5-2.46,14.33,14.33,0,0,1-1.58-7.63V73a14.35,14.35,0,0,1,1.62-7.77,6.27,6.27,0,0,1,5.62-2.45Zm-42.09.46h5.33V80.54a5.29,5.29,0,0,0,.35,2.26,1.2,1.2,0,0,0,1.16.67A2.3,2.3,0,0,0,34.39,83,2.64,2.64,0,0,0,35.32,82V63.2h5.32V86.82H36.47L36,83.93h-.13a5.43,5.43,0,0,1-5.07,3.28,4,4,0,0,1-3.49-1.55,8.27,8.27,0,0,1-1.13-4.81Zm42,3.14a1.54,1.54,0,0,0-1.26.51,3.23,3.23,0,0,0-.54,1.62,30.61,30.61,0,0,0-.13,3.45v1.69h3.89V71.94A28.19,28.19,0,0,0,70,68.5a3.26,3.26,0,0,0-.56-1.66,1.56,1.56,0,0,0-1.25-.5Zm-16.87.18a2,2,0,0,0-1.42.61A3.4,3.4,0,0,0,49,68.73V82.14a2.37,2.37,0,0,0,2.12,1.24,1.59,1.59,0,0,0,1.34-.61,4.43,4.43,0,0,0,.72-2.08,30.53,30.53,0,0,0,.21-4V73.57a40.72,40.72,0,0,0-.17-4.28,4.94,4.94,0,0,0-.62-2.15,1.43,1.43,0,0,0-1.25-.62Z"/></g></g></svg>
